<svg width="1680" height="280" viewBox="0 0 1680 280" fill="none" xmlns="http://www.w3.org/2000/svg">
<g clip-path="url(#clip0_3_15)">
<path fill-rule="evenodd" clip-rule="evenodd" d="M172.916 26.6473H52.726C29.6814 26.6473 11 45.3286 11 68.3733V223.107C11 246.152 29.6814 264.833 52.726 264.833H247.837C273.881 264.833 293.561 241.238 288.885 215.617L272.95 128.29L224.686 209.101C218.325 219.752 207.554 227.02 195.297 228.933L156.085 235.053C134.597 238.406 114.137 224.693 109.072 203.543L101.065 170.102C98.5278 159.508 100.235 148.343 105.82 138.99L172.916 26.6473ZM221.337 26.683C240.741 27.4827 257.135 41.6265 260.649 60.8827L264.886 84.1019C264.662 84.5085 264.43 84.9128 264.19 85.3145L206.171 182.46C199.97 192.844 189.47 199.929 177.52 201.794L175.1 202.172C155.519 205.227 136.875 192.731 132.259 173.458C129.948 163.804 131.503 153.629 136.593 145.107L196.462 44.8643C202.171 35.3046 211.289 29.0358 221.337 26.683Z" fill="#327FD8"/>
<path d="M209.555 22.9411C213.494 16.3462 222.033 14.193 228.628 18.1317L272.474 44.3184C279.069 48.2572 281.222 56.7964 277.284 63.3913L199.729 193.246C197.609 196.796 194.019 199.219 189.933 199.857L153.113 205.603C145.95 206.721 139.13 202.15 137.442 195.1L129.973 163.908C129.127 160.377 129.696 156.655 131.558 153.537L209.555 22.9411Z" fill="#3B3E42"/>
<path d="M445.989 231.082C415.462 231.082 394.549 223.704 383.249 208.946C372.033 194.189 366.425 172.643 366.425 144.309C366.425 115.89 372.033 94.3862 383.249 79.7975C394.549 65.2087 415.42 57.9143 445.862 57.9143C476.389 57.9143 496.754 64.8714 506.958 78.7855C517.162 92.6997 522.264 109.186 522.264 128.244H478.75C478.75 111.8 475.883 100.837 470.149 95.356C464.499 89.8747 456.319 87.134 445.609 87.134C434.647 87.134 425.961 90.3385 419.552 96.7474C413.143 103.072 409.939 118.926 409.939 144.309C409.939 169.86 413.143 185.84 419.552 192.249C426.045 198.658 434.731 201.863 445.609 201.863C456.235 201.863 464.415 199.038 470.149 193.388C475.883 187.653 478.75 176.775 478.75 160.753H522.264C522.264 179.305 517.162 195.664 506.958 209.832C496.754 223.999 476.431 231.082 445.989 231.082ZM578.952 230.07L529.873 59.3057H573.639L610.702 205.404H609.816L646.878 59.3057H690.518L641.439 230.07H578.952Z" fill="#3B3E42"/>
<path d="M708.583 230.07V59.3057H807.12C827.949 59.3057 840.978 63.6065 846.207 72.2079C851.435 80.7251 854.049 89.959 854.049 99.9098C854.049 109.86 851.814 118.715 847.345 126.473C842.96 134.147 835.75 138.153 825.715 138.49C836.003 139.08 843.972 143.339 849.622 151.266C855.272 159.108 858.097 169.059 858.097 181.118C858.097 194.948 855.483 206.585 850.254 216.03C845.11 225.39 831.997 230.07 810.915 230.07H708.583ZM751.717 200.851H800.163C806.151 200.851 810.114 198.911 812.054 195.032C814.077 191.153 815.089 185.039 815.089 176.691C815.089 168.679 813.951 162.608 811.674 158.476C809.397 154.344 804.759 152.278 797.76 152.278H751.717V200.851ZM751.717 126.22H794.977C801.217 126.22 805.392 124.407 807.5 120.781C809.608 117.155 810.662 112.264 810.662 106.108C810.662 100.289 809.735 95.9042 807.879 92.9527C806.024 89.9169 802.145 88.399 796.242 88.399H751.717V126.22ZM987.081 230.07L977.341 206.163V80.177H1019.72V230.07H987.081ZM920.799 80.0505V159.488C920.799 176.1 922.739 187.358 926.618 193.261C930.582 199.164 936.78 202.116 945.212 202.116C953.983 202.116 961.53 198.7 967.855 191.87C974.264 184.955 977.468 175.721 977.468 164.168L998.213 172.896C998.213 186.135 992.183 199.206 980.124 212.108C968.15 224.926 951.284 231.335 929.527 231.335C909.963 231.335 896.555 225.011 889.303 212.361C882.051 199.712 878.425 182.762 878.425 161.511V80.0505H920.799ZM1048.26 230.07V80.0505H1090.89V230.07H1048.26ZM1048.26 35.0192H1090.89V64.7449H1048.26V35.0192ZM1121.88 230.07V31.4774H1164.51V230.07H1121.88ZM1294.96 230.07L1292.18 207.681V31.4774H1334.55V230.07H1294.96ZM1244.74 231.082C1224.42 231.082 1209.66 224.294 1200.47 210.717C1191.28 197.14 1186.68 178.504 1186.68 154.807C1186.68 131.027 1191.28 112.432 1200.47 99.0243C1209.66 85.6161 1224.42 78.912 1244.74 78.912C1262.71 78.912 1278.22 83.0863 1291.29 91.4348C1304.45 99.6989 1311.03 108.891 1311.03 119.01L1292.18 137.351C1292.18 129.172 1288.93 122.257 1282.44 116.607C1276.03 110.872 1268.44 108.005 1259.67 108.005C1250.14 108.005 1242.76 111.168 1237.53 117.492C1232.31 123.732 1229.69 136.213 1229.69 154.934C1229.69 173.823 1232.31 186.388 1237.53 192.629C1242.76 198.869 1250.14 201.989 1259.67 201.989C1268.44 201.989 1276.03 199.164 1282.44 193.514C1288.93 187.864 1292.18 180.865 1292.18 172.516L1311.03 191.111C1311.03 201.23 1304.45 210.422 1291.29 218.686C1278.22 226.95 1262.71 231.082 1244.74 231.082ZM1431.96 231.588C1403.62 231.588 1383.76 224.758 1372.38 211.096C1361.08 197.351 1355.43 178.672 1355.43 155.06C1355.43 130.858 1361.12 112.095 1372.51 98.7713C1383.89 85.3631 1403.45 78.659 1431.2 78.659C1459.62 78.659 1479.26 85.4475 1490.14 99.0243C1501.11 112.601 1506.59 131.238 1506.59 154.934C1506.59 159.656 1506.29 163.873 1505.7 167.583H1392.62V141.905H1465.98L1464.47 145.7C1464.47 131.28 1461.51 121.076 1455.61 115.089C1449.79 109.102 1441.65 106.108 1431.2 106.108C1420.91 106.108 1412.56 109.355 1406.15 115.848C1399.74 122.341 1396.54 135.412 1396.54 155.06C1396.54 174.287 1399.7 187.274 1406.03 194.02C1412.43 200.766 1421.08 204.139 1431.96 204.139V231.588ZM1431.96 204.139C1438.28 204.139 1443.51 203.296 1447.64 201.61C1451.77 199.923 1455.06 197.098 1457.51 193.135C1460.04 189.171 1462.19 184.491 1463.96 179.094L1502.03 189.846C1500.18 199.712 1496.13 207.681 1489.89 213.753C1483.73 219.824 1476.27 224.336 1467.5 227.287C1458.82 230.155 1446.97 231.588 1431.96 231.588V204.139ZM1623.35 154.048C1623.35 135.159 1621.2 122.805 1616.9 116.986C1612.6 111.083 1606.61 108.132 1598.94 108.132C1590 108.132 1582.91 111.252 1577.69 117.492C1572.46 123.648 1569.84 130.732 1569.84 138.743L1553.53 129.003C1553.53 114.836 1559.18 102.946 1570.48 93.3321C1581.78 83.6344 1596.58 78.7855 1614.87 78.7855C1634.69 78.7855 1648.14 84.8993 1655.23 97.1269C1662.31 109.27 1665.85 128.244 1665.85 154.048H1623.35ZM1527.47 230.07V80.177H1560.36L1569.97 106.108V230.07H1527.47Z" fill="#327FD8"/>
</g>
<defs>
<clipPath id="clip0_3_15">
<rect width="1680" height="280" fill="white"/>
</clipPath>
</defs>
</svg>
