<svg width="87" height="16" viewBox="0 0 87 16" fill="none" xmlns="http://www.w3.org/2000/svg">
<path d="M8.82 15L3.84 7.58L8.58 0.76H13.4L7.92 8.16L7.9 6.88L13.62 15H8.82ZM0.18 15V0.76H4.18V15H0.18ZM17.8145 9.32V6.56H20.2345C20.7812 6.56 21.1945 6.42667 21.4745 6.16C21.7679 5.89333 21.9145 5.54 21.9145 5.1C21.9145 4.66 21.7679 4.30667 21.4745 4.04C21.1945 3.77333 20.7812 3.64 20.2345 3.64H17.8145V0.76H20.8745C21.8612 0.76 22.7279 0.939999 23.4745 1.3C24.2212 1.66 24.8079 2.16 25.2345 2.8C25.6612 3.44 25.8745 4.18667 25.8745 5.04C25.8745 5.89333 25.6545 6.64 25.2145 7.28C24.7879 7.92 24.1879 8.42 23.4145 8.78C22.6412 9.14 21.7279 9.32 20.6745 9.32H17.8145ZM14.5745 15V0.76H18.5745V15H14.5745ZM22.2545 15L18.3745 8.92L21.9745 8.14L26.7945 15H22.2545ZM31.5898 10.1L26.1698 0.76H30.7698L34.8698 8.38H31.4298L35.5298 0.76H40.0298L34.5698 10.1H31.5898ZM31.1298 15V8.64H35.1298V15H31.1298ZM44.045 10V7.12H46.625C46.9317 7.12 47.2117 7.06 47.465 6.94C47.7317 6.80667 47.945 6.61333 48.105 6.36C48.265 6.09333 48.345 5.76667 48.345 5.38C48.345 4.99333 48.265 4.67333 48.105 4.42C47.945 4.15333 47.7317 3.96 47.465 3.84C47.2117 3.70667 46.9317 3.64 46.625 3.64H44.045V0.76H47.405C48.325 0.76 49.1517 0.946666 49.885 1.32C50.6317 1.68 51.2183 2.20667 51.645 2.9C52.085 3.58 52.305 4.40667 52.305 5.38C52.305 6.34 52.085 7.16667 51.645 7.86C51.2183 8.55333 50.6317 9.08667 49.885 9.46C49.1517 9.82 48.325 10 47.405 10H44.045ZM40.805 15V0.76H44.805V15H40.805ZM57.1152 15V0.76H61.1152V15H57.1152ZM52.8552 4.16V0.76H65.3952V4.16H52.8552ZM73.3723 15.28C72.2523 15.28 71.219 15.0933 70.2723 14.72C69.339 14.3467 68.519 13.8267 67.8123 13.16C67.119 12.4933 66.579 11.7067 66.1923 10.8C65.8057 9.89333 65.6123 8.91333 65.6123 7.86C65.6123 6.79333 65.799 5.81333 66.1723 4.92C66.559 4.02667 67.099 3.24667 67.7923 2.58C68.4857 1.91333 69.299 1.4 70.2323 1.04C71.179 0.666666 72.2123 0.48 73.3323 0.48C74.4523 0.48 75.479 0.666666 76.4123 1.04C77.359 1.4 78.179 1.91333 78.8723 2.58C79.5657 3.24667 80.099 4.03333 80.4723 4.94C80.859 5.83333 81.0523 6.81333 81.0523 7.88C81.0523 8.93333 80.859 9.91333 80.4723 10.82C80.099 11.7133 79.5657 12.5 78.8723 13.18C78.179 13.8467 77.3657 14.3667 76.4323 14.74C75.499 15.1 74.479 15.28 73.3723 15.28ZM73.3323 11.76C74.079 11.76 74.7257 11.6 75.2723 11.28C75.819 10.96 76.239 10.5067 76.5323 9.92C76.8257 9.33333 76.9723 8.64667 76.9723 7.86C76.9723 7.27333 76.8857 6.74667 76.7123 6.28C76.5523 5.8 76.3123 5.39333 75.9923 5.06C75.6723 4.71333 75.2857 4.45333 74.8323 4.28C74.3923 4.09333 73.8923 4 73.3323 4C72.5857 4 71.939 4.16 71.3923 4.48C70.8457 4.78667 70.4257 5.23333 70.1323 5.82C69.839 6.39333 69.6923 7.07333 69.6923 7.86C69.6923 8.46 69.7723 9 69.9323 9.48C70.1057 9.96 70.3523 10.3733 70.6723 10.72C70.9923 11.0533 71.3723 11.3133 71.8123 11.5C72.2657 11.6733 72.7723 11.76 73.3323 11.76Z" fill="white"/>
<path d="M84.6195 15.24C83.9929 15.24 83.4729 15.0267 83.0595 14.6C82.6462 14.1733 82.4395 13.6533 82.4395 13.04C82.4395 12.4133 82.6462 11.8867 83.0595 11.46C83.4729 11.0333 83.9929 10.82 84.6195 10.82C85.2462 10.82 85.7595 11.0333 86.1595 11.46C86.5729 11.8867 86.7795 12.4133 86.7795 13.04C86.7795 13.6533 86.5729 14.1733 86.1595 14.6C85.7595 15.0267 85.2462 15.24 84.6195 15.24Z" fill="#9090DC"/>
</svg>
