<svg width="202" height="50" viewBox="0 0 202 50" fill="none" xmlns="http://www.w3.org/2000/svg">
<g id="Allianz" clip-path="url(#clip0_103_62)">
<path id="Vector" d="M18.3705 26.4649H11.4872L15.1533 14.5036L18.3705 26.4649ZM7.91702 39.6465L10.2669 31.7698H19.5404L21.739 39.6263H30.3116L21.7945 9.67275C21.2902 7.90276 20.2313 7.08585 18.3705 7.08585H6.21259V9.9148H7.22113C8.49189 9.9148 9.17769 10.4191 9.17769 11.3822C9.17769 12.0226 9.0365 12.5572 8.53223 14.0145L-3.8147e-06 39.6465H7.91702Z" fill="#7D7D7D"/>
<path id="Vector_2" d="M40.2306 39.6465V9.58198C40.2306 8.0137 39.3128 7.08585 37.795 7.08585H30.2561V9.9148H30.7604C32.0261 9.9148 32.5657 10.4544 32.5657 11.7352V39.6465H40.2306Z" fill="#7D7D7D"/>
<path id="Vector_3" d="M53.2609 39.6465V9.58198C53.2609 8.0137 52.328 7.08585 50.8202 7.08585H43.3066V9.9148H43.8109C45.0817 9.9148 45.6212 10.4544 45.6212 11.7352V39.6465H53.2609Z" fill="#7D7D7D"/>
<path id="Vector_4" d="M66.6291 10.056C66.6291 7.87249 65.0104 6.52609 62.2369 6.52609C59.4634 6.52609 57.8346 7.84728 57.8346 10.056C57.8346 12.2647 59.5038 13.5859 62.2369 13.5859C64.97 13.5859 66.6291 12.2748 66.6291 10.056ZM66.4828 39.6465V17.731C66.4828 16.1677 65.555 15.2449 64.0371 15.2449H56.6193V18.0184H57.0581C58.3238 18.0184 58.8633 18.6033 58.8633 19.8741V39.6465H66.4828Z" fill="#7D7D7D"/>
<path id="Vector_5" d="M83.2649 27.9273V32.6725C81.9891 33.9886 80.436 34.7954 79.1198 34.7954C77.8037 34.7954 77.2641 34.1197 77.2641 32.2741C77.2641 30.4285 77.6474 29.6469 79.019 29.1174C80.3847 28.5614 81.8091 28.1621 83.2649 27.9273M72.9577 22.2291C75.3001 21.067 77.8632 20.4172 80.4763 20.3229C82.5337 20.3229 83.2649 21.0541 83.2649 23.1872V23.7318C80.1435 24.236 79.1652 24.4277 77.4053 24.816C76.4196 25.0331 75.4545 25.3351 74.5209 25.7186C71.4398 26.9541 69.9825 29.3342 69.9825 32.9902C69.9825 37.6294 71.9995 39.8684 76.1295 39.8684C77.5343 39.8741 78.9274 39.6123 80.2343 39.0969C81.4197 38.5573 82.5217 37.8509 83.507 36.9991V37.342C83.507 38.8548 84.2835 39.6263 85.8014 39.6263H92.7855V37.0193H92.4426C91.1265 37.0193 90.6424 36.4293 90.6424 34.8711V23.2477C90.6424 17.0502 88.4891 14.8919 82.2816 14.8919C80.3137 14.9018 78.3531 15.1335 76.4371 15.5828C74.6269 15.9865 72.8832 16.6452 71.2583 17.5393L72.9577 22.2291Z" fill="#7D7D7D"/>
<path id="Vector_6" d="M103.905 39.6465V23.1468C105.18 21.7298 106.492 21.0894 108.004 21.0894C109.623 21.0894 110.021 21.7298 110.021 24.1856V39.6465H117.636V23.056C117.636 19.1933 117.359 17.973 116.123 16.6619C115.115 15.5273 113.536 14.9524 111.524 14.9524C108.544 14.9524 106.446 15.8752 103.627 18.5126V17.5393C103.627 16.0265 102.836 15.2449 101.277 15.2449H94.0412V18.0184H94.4799C95.7456 18.0184 96.2902 18.6033 96.2902 19.8741V39.6465H103.905Z" fill="#7D7D7D"/>
<path id="Vector_7" d="M140.222 34.5231H129.597L139.758 20.2775V15.2348H123.823C122.018 15.2348 121.186 16.0618 121.186 17.8722V22.3097H124.015V21.8761C124.015 20.7515 124.6 20.217 125.815 20.217H131.292L121.025 34.624V39.6667H140.187L140.222 34.5231Z" fill="#7D7D7D"/>
<path id="Vector_8" d="M180.196 39.0262V11.4377C180.196 9.23906 179.414 8.49779 177.281 8.49779H170.821V11.599H171.209C172.682 11.599 172.969 11.9319 172.969 13.7069V39.0262H180.196ZM183.383 39.0262H190.553V17.5393C190.553 15.3811 189.721 14.6045 187.618 14.6045H183.383V39.0262ZM169.803 39.0262V14.6247H165.552C163.449 14.6247 162.627 15.4012 162.627 17.5595V39.0262H169.803ZM197.341 25.0025C197.341 37.1604 188.597 46.0003 176.59 46.0003C164.583 46.0003 155.819 37.1604 155.819 25.0025C155.819 12.8446 164.578 4.00475 176.59 4.00475C188.602 4.00475 197.341 12.895 197.341 25.0025ZM201.587 25.0025C201.587 10.7065 190.891 0.000854492 176.59 0.000854492C162.289 0.000854492 151.583 10.7065 151.583 25.0025C151.583 39.2985 162.279 49.9991 176.59 49.9991C190.901 49.9991 201.587 39.3338 201.587 25.0025Z" fill="#7D7D7D"/>
</g>
<defs>
<clipPath id="clip0_103_62">
<rect width="201.587" height="50" fill="white"/>
</clipPath>
</defs>
</svg>
