<svg width="231" height="50" viewBox="0 0 231 50" fill="none" xmlns="http://www.w3.org/2000/svg">
<g id="Deloitte">
<path id="Vector" d="M214.578 39.8347C214.578 36.5942 217.209 33.9651 220.448 33.9651C223.688 33.9651 226.316 36.5942 226.316 39.8347C226.316 43.0752 223.688 45.7025 220.448 45.7025C217.209 45.7025 214.578 43.0752 214.578 39.8347Z" fill="#7D7D7D"/>
<path id="Vector_2" d="M27.3864 24.2902C27.3864 20.5725 26.6681 17.8143 25.2312 16.0174C23.7926 14.2223 21.6135 13.3255 18.6839 13.3255H15.5674V36.06H17.9518C21.2059 36.06 23.5905 35.0953 25.1088 33.1592C26.6254 31.2264 27.3864 28.2695 27.3864 24.2902M38.5005 23.903C38.5005 30.6762 36.6798 35.8952 33.0385 39.5586C29.3971 43.2237 24.2784 45.0563 17.6801 45.0563H4.85901V4.47021H18.5751C24.9372 4.47021 29.8488 6.13631 33.3101 9.46683C36.7698 12.799 38.5005 17.6088 38.5005 23.903" fill="#7D7D7D"/>
<path id="Vector_3" d="M74.0148 45.0558H84.217V4.29993H74.0148V45.0558Z" fill="#7D7D7D"/>
<path id="Vector_4" d="M98.5489 29.8537C98.5489 32.4522 98.8886 34.4342 99.5663 35.7963C100.246 37.1601 101.383 37.8412 102.983 37.8412C104.566 37.8412 105.685 37.1601 106.338 35.7963C106.99 34.4342 107.314 32.4522 107.314 29.8537C107.314 27.2688 106.985 25.319 106.324 24.0028C105.662 22.6831 104.532 22.0224 102.931 22.0224C101.365 22.0224 100.246 22.6798 99.5663 23.9875C98.8886 25.297 98.5489 27.2518 98.5489 29.8537ZM117.698 29.8537C117.698 34.8045 116.4 38.6666 113.799 41.4349C111.198 44.205 107.559 45.5908 102.88 45.5908C98.3927 45.5908 94.8208 44.1744 92.1697 41.3415C89.5153 38.5086 88.1888 34.6805 88.1888 29.8537C88.1888 24.9182 89.4882 21.0833 92.0901 18.3489C94.6919 15.6145 98.34 14.2473 103.038 14.2473C105.94 14.2473 108.508 14.8808 110.733 16.1461C112.96 17.4114 114.679 19.2236 115.886 21.5843C117.095 23.9417 117.698 26.6998 117.698 29.8537Z" fill="#7D7D7D"/>
<path id="Vector_5" d="M121.75 45.0559H131.953V29.458V14.7823H121.75V45.0559Z" fill="#7D7D7D"/>
<path id="Vector_6" d="M121.749 11.1205H131.953V4.2981H121.749V11.1205Z" fill="#7D7D7D"/>
<path id="Vector_7" d="M152.626 37.3343C154.003 37.3343 155.644 36.9845 157.558 36.2898V43.907C156.182 44.5116 154.874 44.9447 153.631 45.2012C152.388 45.461 150.929 45.5901 149.26 45.5901C145.834 45.5901 143.364 44.729 141.848 43.0103C140.338 41.2915 139.58 38.6523 139.58 35.0908V22.6111H136.007V14.785H139.58V7.05394L149.863 5.2655V14.785H156.372V22.6111H149.863V34.3944C149.863 36.3543 150.785 37.3343 152.626 37.3343" fill="#7D7D7D"/>
<path id="Vector_8" d="M176.241 37.3343C177.619 37.3343 179.26 36.9845 181.174 36.2898V43.907C179.8 44.5116 178.49 44.9447 177.247 45.2012C176.002 45.461 174.548 45.5901 172.875 45.5901C169.45 45.5901 166.98 44.729 165.467 43.0103C163.954 41.2915 163.196 38.6523 163.196 35.0908V22.6111H159.621V14.785H163.196V6.93676L173.477 5.2655V14.785H179.99V22.6111H173.477V34.3944C173.477 36.3543 174.399 37.3343 176.241 37.3343" fill="#7D7D7D"/>
<path id="Vector_9" d="M194.048 26.1655C194.187 24.5079 194.662 23.2936 195.47 22.5174C196.282 21.743 197.284 21.3558 198.483 21.3558C199.791 21.3558 200.83 21.7905 201.601 22.6669C202.377 23.5381 202.781 24.7049 202.814 26.1655H194.048V26.1655ZM208.437 17.8164C206.012 15.4387 202.571 14.248 198.119 14.248C193.44 14.248 189.84 15.6152 187.316 18.3496C184.794 21.084 183.532 25.0073 183.532 30.1194C183.532 35.0702 184.896 38.8881 187.617 41.5681C190.339 44.2481 194.162 45.5899 199.086 45.5899C201.45 45.5899 203.485 45.4286 205.19 45.1076C206.885 44.79 208.525 44.2159 210.117 43.3871L208.549 36.5647C207.393 37.0368 206.292 37.4003 205.253 37.6398C203.751 37.988 202.104 38.1629 200.31 38.1629C198.344 38.1629 196.791 37.6822 195.653 36.7209C194.515 35.758 193.909 34.4299 193.84 32.7383H212.077V28.0898C212.077 23.618 210.864 20.1924 208.437 17.8164Z" fill="#7D7D7D"/>
<path id="Vector_10" d="M52.0411 26.1655C52.1804 24.5079 52.6542 23.2936 53.4625 22.5174C54.2727 21.743 55.2766 21.3558 56.4775 21.3558C57.7818 21.3558 58.8211 21.7905 59.5939 22.6669C60.37 23.5381 60.7726 24.7049 60.8083 26.1655H52.0411V26.1655ZM66.4315 17.8164C64.0046 15.4387 60.5653 14.248 56.1122 14.248C51.4314 14.248 47.8325 15.6152 45.3103 18.3496C42.7883 21.084 41.5248 25.0073 41.5248 30.1194C41.5248 35.0702 42.887 38.8881 45.6112 41.5681C48.332 44.2481 52.1549 45.5899 57.0785 45.5899C59.4427 45.5899 61.4772 45.4286 63.1824 45.1076C64.8774 44.79 66.5183 44.2159 68.1113 43.3871L66.542 36.5647C65.3853 37.0368 64.2847 37.4003 63.2471 37.6398C61.7423 37.988 60.0965 38.1629 58.3029 38.1629C56.3379 38.1629 54.7842 37.6822 53.6463 36.7209C52.5066 35.758 51.902 34.4299 51.8325 32.7383H70.0695V28.0898C70.0695 23.618 68.8568 20.1924 66.4315 17.8164" fill="#7D7D7D"/>
</g>
</svg>
