<svg width="120" height="50" viewBox="0 0 120 50" fill="none" xmlns="http://www.w3.org/2000/svg">
<g id="Disney">
<path id="Vector" d="M102.859 21.8394C100.872 22.2979 95.6247 22.5526 95.6247 22.5526L94.9793 24.6245C94.9793 24.6245 97.5777 24.4037 99.4797 24.5905C99.4797 24.5905 100.091 24.5396 100.159 25.2698C100.193 26.017 100.108 26.7982 100.108 26.7982C100.108 26.7982 100.057 27.2567 99.4287 27.3756C98.6985 27.4945 93.7736 27.7153 93.7736 27.7153L92.9754 30.3985C92.9754 30.3985 92.6867 31.0098 93.349 30.84C93.9604 30.6702 99.1231 29.6852 99.8023 29.8211C100.516 29.9909 101.331 30.9759 101.093 31.859C100.821 32.9289 95.6586 36.2234 92.5339 36.0027C92.5339 36.0027 90.8866 36.1046 89.511 33.8799C88.1864 31.7571 89.9695 27.7662 89.9695 27.7662C89.9695 27.7662 89.1714 25.8981 89.7657 25.2188C89.7657 25.2188 90.1054 24.9301 91.1243 24.8452L92.398 22.2299C92.398 22.2299 90.9545 22.3149 90.1054 21.262C89.3242 20.243 89.2563 19.8015 89.8676 19.5297C90.513 19.1901 96.4908 18.1202 100.601 18.2561C100.601 18.2561 102.044 18.0862 103.318 20.5827C103.318 20.5827 103.895 21.6016 102.876 21.8394M87.3712 31.8929C86.8618 33.1326 85.4522 34.4403 83.754 33.6421C82.0218 32.827 79.2876 27.2567 79.2876 27.2567C79.2876 27.2567 78.2687 25.1849 78.0649 25.2528C78.0649 25.2528 77.8441 24.8452 77.7252 27.1209C77.5554 29.3795 77.7592 33.778 76.8252 34.4743C75.976 35.1535 74.9571 34.8648 74.3797 34.0667C73.9042 33.2685 73.7004 31.3495 73.9721 28.004C74.2778 24.6584 75.042 21.0921 76.01 19.9883C77.029 18.8674 77.8441 19.6826 78.1498 19.9883C78.1498 19.9883 79.4574 21.177 81.6652 24.6924L82.0388 25.3377C82.0388 25.3377 84.0427 28.6833 84.2465 28.6663C84.2465 28.6663 84.4163 28.8361 84.5522 28.7002C84.7559 28.6493 84.688 27.5624 84.688 27.5624C84.688 27.5624 84.3144 23.9452 82.4463 17.8315C82.4463 17.8315 82.1746 17.0503 82.3614 16.3031C82.5313 15.6238 83.2615 15.9634 83.2615 15.9634C83.2615 15.9634 86.0806 17.322 87.4561 21.9073C88.8147 26.4925 87.8977 30.6532 87.3882 31.8929M73.5476 20.1241C73.2759 20.5996 73.157 21.262 71.9852 21.4488C71.9852 21.4488 60.607 22.2469 60.0466 23.0451C60.0466 23.0451 59.673 23.5206 60.2843 23.6395C60.9296 23.7753 63.511 24.115 64.7337 24.1829C66.0583 24.1829 70.5077 24.2169 72.138 26.2208C72.138 26.2208 73.0721 27.1718 73.0381 29.3286C73.0041 31.5363 72.6135 32.3175 71.7474 33.1157C70.8474 33.8629 63.1374 37.3273 58.1615 32.0288C58.1615 32.0288 55.8859 29.4814 58.9597 27.5454C58.9597 27.5454 61.1674 26.1868 66.8225 27.7662C66.8225 27.7662 68.5208 28.3776 68.4529 29.0059C68.351 29.6852 67.0433 30.3645 65.1413 30.3305C63.3072 30.2796 61.9486 29.3965 62.2203 29.5494C62.475 29.6343 60.2334 28.4625 59.5371 29.2607C58.8578 30.0079 59.0276 30.4494 59.7069 30.9079C61.4052 31.8929 68.0792 31.5363 70.0662 29.3116C70.0662 29.3116 70.8644 28.4115 69.6586 27.6813C68.4698 27.002 65.0054 26.5774 63.6638 26.5265C62.3901 26.4586 57.6181 26.5265 56.9048 25.2868C56.9048 25.2868 56.2255 24.4037 56.9728 21.9922C57.7539 19.4448 63.3072 18.4599 65.7187 18.2561C65.7187 18.2561 72.3418 17.9843 73.5815 19.3429C73.5815 19.3429 73.7514 19.6486 73.5476 20.1071M54.765 35.0517C53.9669 35.646 52.2686 35.3913 51.7761 34.712C51.3006 34.1176 51.1308 31.7741 51.2157 28.0889C51.3346 24.3188 51.3855 19.6996 52.2347 18.9523C53.0838 18.2221 53.5933 18.8674 53.9329 19.3599C54.2726 19.8694 54.7141 20.4298 54.782 21.6016C54.8839 22.7904 55.1726 28.904 55.1726 28.904C55.1726 28.904 55.5462 34.4743 54.782 35.0517M56.4633 15.1823C54.1197 15.9804 52.5234 15.7257 51.1648 15.1313C50.5704 16.2012 50.2138 16.5239 49.7722 16.5918C49.0929 16.6597 48.4985 15.5728 48.4136 15.2332C48.2778 14.9785 47.9551 14.5199 48.3457 13.484C47.0211 12.2952 46.9192 10.6989 47.1569 9.62901C47.4626 8.37232 49.7043 3.65121 56.4972 3.09079C56.4972 3.09079 59.8258 2.85304 60.4032 4.61921H60.5051C60.5051 4.61921 63.7317 4.61921 63.6638 7.50621C63.6638 10.3932 60.0975 13.9935 56.4633 15.2332M59.4861 6.96278C57.3464 7.30242 54.0518 10.1555 52.4724 12.516C54.9009 12.9576 59.1465 12.7877 61.0485 8.94972C61.0485 8.94972 61.9486 6.53822 59.4861 6.96278ZM50.0949 8.83084C49.4156 9.9347 49.3816 10.597 49.7043 11.0386C50.5025 9.84978 51.912 7.98172 54.0348 6.52123C52.4045 6.69106 51.0289 7.37035 50.0949 8.83084ZM107.954 34.9328C106.392 38.7708 105.067 42.6598 104.303 48.4847C104.303 48.4847 104.133 49.6225 103.199 49.2489C102.265 48.9093 100.736 47.3809 100.397 45.2241C100.057 42.405 101.314 37.65 103.878 32.1816C103.131 30.9929 102.604 29.2267 103.029 26.7473C103.029 26.7473 103.708 22.162 108.294 18.0183C108.294 18.0183 108.837 17.5598 109.143 17.7126C109.516 17.8825 109.363 19.3429 109.058 20.0902C108.786 20.8034 106.748 24.3358 106.748 24.3358C106.748 24.3358 105.474 26.7473 105.831 28.6323C108.243 24.9301 113.728 17.4239 117.124 19.8015C119.281 21.3299 119.281 26.2548 117.668 29.1078C116.394 31.3665 112.794 36.0366 107.988 34.9498M115.053 23.4017C113.796 24.7603 111.554 27.3416 109.788 30.84C111.656 30.6362 113.473 29.6003 114.034 29.0739C114.934 28.2757 117.006 26.1189 116.683 23.2659C116.683 23.2659 116.479 21.7714 115.053 23.4017M38.9714 36.9367C32.9596 38.7708 27.2875 37.9217 24.1967 37.1065C24.1118 38.3632 23.976 38.8897 23.7722 39.0935C23.5344 39.3652 21.5645 40.486 20.4776 38.8897C20.0021 38.1255 19.7643 36.7499 19.6285 35.4932C12.6657 32.3345 9.43903 27.6813 9.33714 27.5115C9.16732 27.3416 7.58795 25.6944 9.16732 23.6565C10.6448 21.8224 15.5357 19.9713 19.9172 19.241C20.087 15.5049 20.4946 12.6179 21.021 11.3442C21.6494 9.81582 22.4475 11.1744 23.1608 12.1934C23.7382 12.9576 24.0948 16.2352 24.1288 18.8505C26.9818 18.7146 28.7141 18.9184 31.8898 19.5297C36.0674 20.243 38.8525 22.3828 38.6318 24.7943C38.428 27.1718 36.2542 28.1568 35.4051 28.2247C34.556 28.2927 33.1974 27.6643 33.1974 27.6643C32.2464 27.2228 33.1125 26.8152 34.2163 26.3397C35.4391 25.7453 35.1674 25.1509 35.1674 25.1509C34.7258 23.7923 29.3084 22.8923 23.925 22.8923C23.925 25.8642 24.0439 30.7891 24.1288 33.6591C27.8989 34.3724 30.718 34.2195 30.718 34.2195C30.718 34.2195 44.4737 33.8289 44.8643 25.049C45.2889 16.2521 31.1086 7.82888 20.6644 5.17963C10.2372 2.44546 4.32733 4.38145 3.81786 4.63619C3.25744 4.90791 3.76692 5.0098 3.76692 5.0098C3.76692 5.0098 4.32733 5.09471 5.34628 5.43436C6.36522 5.77401 5.55007 6.28348 5.55007 6.28348C3.76692 6.89485 1.77997 6.53822 1.38938 5.72306C0.998785 4.92489 1.64412 4.19465 2.40832 3.12476C3.12158 2.0209 3.93674 2.05486 3.93674 2.05486C16.8434 -2.44547 32.603 5.62117 32.603 5.62117C47.3437 13.0595 49.8571 21.8054 49.5854 25.2019C49.3477 28.5474 48.057 34.2025 38.9714 36.9537M10.6108 24.7943C9.15033 25.4736 10.1693 26.5605 10.1693 26.5605C12.9204 29.4984 16.2829 31.3495 19.5096 32.5043C19.8832 27.4096 19.8492 25.5925 19.8492 23.0281C14.8564 23.3678 11.9694 24.1829 10.6108 24.7943Z" fill="#7D7D7D"/>
</g>
</svg>
