<svg width="230" height="50" viewBox="0 0 230 50" fill="none" xmlns="http://www.w3.org/2000/svg">
<g id="Huawei">
<path id="Vector" d="M125.204 16.4996H130.314V30.7141C130.314 37.9293 126.338 42.0677 119.41 42.0677C112.555 42.0677 108.614 38.0012 108.614 30.912V16.5176H113.724V30.75C113.724 34.9604 115.794 37.2095 119.482 37.2095C123.171 37.2095 125.204 35.0144 125.204 30.93V16.4996ZM96.4152 26.6476H84.8637V16.4996H79.7537V41.6898H84.8637V31.4518H96.3972V41.6898H101.507V16.4996H96.3972V26.6476H96.4152ZM224.381 16.4996V41.6538H229.419V16.4996H224.381ZM204.319 30.84H213.622V26.2518H204.319V21.0878H217.814V16.5176H199.281V41.6718H218.3V37.0836H204.319V30.84ZM184.275 33.8089L178.553 16.4816H174.379L168.657 33.8089L163.097 16.4996H157.663L166.444 41.6718H170.672L176.394 25.1362L182.116 41.6718H186.38L195.143 16.4996H189.835L184.275 33.8089ZM148.577 16.6435L159.571 41.6718H154.209L151.942 36.4358H140.408L140.246 36.7957L138.123 41.6718H132.905L144.007 16.4996H148.469L148.577 16.6435ZM149.8 31.2898L146.166 22.8511L142.549 31.2898L142.297 31.8656H150.034L149.8 31.2898Z" fill="#7D7D7D"/>
<path id="Vector_2" d="M29.4453 39.0088C29.5172 38.9549 29.5352 38.8469 29.4992 38.7569C24.5378 28.0931 18.3483 18.0449 11.0564 8.81657C11.0564 8.81657 5.26267 14.3224 5.67651 19.8463C5.77345 21.1198 6.12052 22.3617 6.69787 23.501C7.27521 24.6402 8.07151 25.6545 9.0412 26.4857C14.0972 31.4158 26.3325 37.6414 29.1754 39.0628C29.2653 39.0988 29.3733 39.0808 29.4453 39.0088M27.556 43.2192C27.52 43.1112 27.4121 43.0393 27.2861 43.0393L6.91803 43.741C9.13117 47.6815 12.8557 50.7403 16.7242 49.8046C19.4052 49.1389 25.4508 44.9105 27.448 43.4711C27.61 43.3451 27.556 43.2372 27.556 43.2192M27.8619 41.4019C27.9698 41.24 27.7899 41.096 27.7899 41.096C18.8474 35.0504 1.50213 25.766 1.50213 25.766C0.927217 27.5281 0.766388 29.3991 1.03214 31.2336C1.2979 33.068 1.98308 34.8164 3.03444 36.343C4.0858 37.8695 5.47501 39.1331 7.09411 40.0355C8.71321 40.9378 10.5186 41.4547 12.3699 41.5458C12.6758 41.5998 24.4792 41.5458 27.646 41.5279C27.7359 41.5099 27.8079 41.4739 27.8619 41.4019M29.2114 0.017993C28.3297 0.089965 25.9366 0.647748 25.9366 0.647748C20.5387 2.03321 19.2612 6.9453 19.2612 6.9453C18.2716 10.0221 19.2792 13.4228 19.2792 13.4228C21.0785 21.4117 29.9311 34.5646 31.8383 37.3175C31.9643 37.4614 32.0722 37.4075 32.0722 37.4075C32.1802 37.3715 32.2702 37.2815 32.2702 37.1556C35.221 7.79097 29.2114 0.017993 29.2114 0.017993M35.9587 37.3715C36.0667 37.4075 36.1926 37.3715 36.2466 37.2635C38.2079 34.4386 47.0064 21.3577 48.8057 13.4048C48.8057 13.4048 49.7774 9.55429 48.8417 6.92731C48.8417 6.92731 47.5102 1.94324 42.1123 0.629755C42.1123 0.629755 40.5649 0.233909 38.9096 0C38.9096 0 32.8639 7.77298 35.8148 37.1376C35.7968 37.2455 35.8688 37.3355 35.9587 37.3715M40.7809 43.0573C40.7329 43.0669 40.6874 43.0863 40.6472 43.1141C40.607 43.142 40.5729 43.1777 40.547 43.2192C40.529 43.3272 40.547 43.4171 40.6189 43.4891C42.5622 44.8925 48.4819 49.0309 51.3248 49.8226C51.3248 49.8226 56.5967 51.6219 61.1669 43.759L40.7809 43.0573ZM66.6008 25.73C66.6008 25.73 49.2916 35.0324 40.331 41.078C40.2411 41.15 40.1871 41.258 40.2231 41.3659C40.2231 41.3659 40.313 41.5279 40.439 41.5279C43.6417 41.5279 55.769 41.5458 56.0929 41.4919C57.2984 41.4019 58.486 41.132 59.6015 40.6822C59.6015 40.6822 63.9199 39.3147 66.151 34.4026C66.151 34.4026 68.1482 30.4082 66.6008 25.73ZM38.6937 39.0088C38.7656 39.0628 38.8736 39.0808 38.9636 39.0268C41.8784 37.5694 54.0237 31.3978 59.0438 26.4857C59.0438 26.4857 62.2285 23.9307 62.3905 19.8103C62.7503 14.1065 57.0106 8.81657 57.0106 8.81657C57.0106 8.81657 46.3947 21.6816 38.6037 38.685C38.5912 38.7422 38.5929 38.8016 38.6086 38.858C38.6242 38.9145 38.6534 38.9662 38.6937 39.0088" fill="#7D7D7D"/>
</g>
</svg>
