<svg width="157" height="50" viewBox="0 0 157 50" fill="none" xmlns="http://www.w3.org/2000/svg">
<g id="Hyundai Motor Group" clip-path="url(#clip0_103_67)">
<path id="Vector" d="M16.3008 9.03534H5.49357V0H0.419434V23.1432H5.49357V13.5591H16.3008V23.1432H21.3727V0H16.3008V9.03534Z" fill="#7D7D7D"/>
<path id="Vector_2" d="M126.486 1.32003C125.421 2.40916 125.379 3.99829 125.351 4.92464V23.1432H130.417V15.759H141.18V23.1432H146.268V0H130.453C128.95 0.0138426 127.544 0.232002 126.486 1.32003ZM131.71 4.5221H141.18V11.2402H130.417V5.84379C130.439 5.57801 130.388 5.09629 130.612 4.81113C130.852 4.51047 131.234 4.53483 131.71 4.5221Z" fill="#7D7D7D"/>
<path id="Vector_3" d="M90.5978 0H74.7542V23.1432H79.8283V4.5221H89.342C89.8149 4.53483 90.2025 4.51047 90.4373 4.81058C90.6643 5.09574 90.6194 5.57746 90.6355 5.84324V23.1426H95.7046V4.92464C95.6764 3.99829 95.6365 2.40916 94.5767 1.32003C93.5131 0.232002 92.1089 0.0138426 90.5978 0Z" fill="#7D7D7D"/>
<path id="Vector_4" d="M65.1917 17.2972C65.1734 17.5685 65.2194 18.0397 64.9957 18.327C64.7554 18.6305 64.3694 18.6039 63.8988 18.6166H54.3873V0H49.3109V23.1432H65.1579C66.6651 23.1315 68.0704 22.9073 69.1307 21.8192C70.1955 20.7318 70.2359 19.1449 70.2647 18.2152V0H65.1928V17.2972H65.1917Z" fill="#7D7D7D"/>
<path id="Vector_5" d="M121.143 4.92464C121.119 3.99829 121.076 2.40916 120.017 1.32003C118.956 0.232002 117.549 0.0138426 116.044 0H105.273H100.203V23.1432H116.044C117.549 23.1315 118.956 22.9073 120.017 21.8192C121.076 20.7318 121.119 19.1449 121.143 18.2152V4.92464ZM116.09 17.2972C116.072 17.5685 116.118 18.0397 115.896 18.327C115.658 18.6305 115.268 18.6039 114.796 18.6166H105.273V4.5221H114.796C115.268 4.53483 115.658 4.51047 115.896 4.81058C116.117 5.09574 116.071 5.57746 116.09 5.84324V17.2972Z" fill="#7D7D7D"/>
<path id="Vector_6" d="M35.3465 10.1256L29.1921 0H23.165L32.6361 14.5906V23.1432H38.0536V14.5906L47.523 0H41.4937L35.3465 10.1256Z" fill="#7D7D7D"/>
<path id="Vector_7" d="M156.762 0H151.352V23.1432H156.762V0Z" fill="#7D7D7D"/>
<path id="Vector_8" d="M156.762 29.1979H0.419434V32.684H156.762V29.1979Z" fill="#7D7D7D"/>
<path id="Vector_9" d="M102.083 46.5089C102.582 46.4514 103.032 46.3019 103.397 45.9242C103.89 45.4209 103.914 44.6878 103.923 44.2576V41.509C103.913 41.081 103.889 40.3451 103.397 39.8412C102.909 39.3379 102.258 39.236 101.562 39.2294H94.1969V49.9995H96.5784V46.535H99.5878L101.907 49.9995H104.419L102.083 46.5089ZM101.685 43.849C101.674 43.9597 101.662 44.0754 101.597 44.1607C101.488 44.3002 101.306 44.2908 101.089 44.2908H96.5789V41.473H101.089C101.306 41.4791 101.488 41.4675 101.597 41.6081C101.662 41.6923 101.675 41.8124 101.685 41.9176V43.849Z" fill="#7D7D7D"/>
<path id="Vector_10" d="M73.2758 46.5089C73.7758 46.4514 74.2259 46.3019 74.5925 45.9242C75.0842 45.4209 75.1085 44.6878 75.118 44.2576V41.509C75.1085 41.081 75.0842 40.3451 74.5925 39.8412C74.1036 39.3379 73.4513 39.236 72.7536 39.2294H65.3916V49.9995H67.7703V46.535H70.7814L73.1003 49.9995H75.6108L73.2758 46.5089ZM72.876 43.849C72.8677 43.9597 72.855 44.0754 72.7907 44.1607C72.6811 44.3002 72.5012 44.2908 72.2824 44.2908H67.7709V41.473H72.2824C72.5012 41.4791 72.6811 41.4675 72.7907 41.6081C72.8555 41.6923 72.8683 41.8124 72.876 41.9176V43.849Z" fill="#7D7D7D"/>
<path id="Vector_11" d="M42.481 39.2299V41.5881H46.1603V50H48.5197V41.5881H52.2023V39.2299H42.481Z" fill="#7D7D7D"/>
<path id="Vector_12" d="M17.8932 39.2298V49.9999H20.2503V43.186L22.5576 49.9999H24.6412L26.9462 43.186V49.9999H29.3028V39.2298H26.1772L23.598 46.8145L21.0194 39.2298H17.8932Z" fill="#7D7D7D"/>
<path id="Vector_13" d="M129.581 50.0001H131.937V46.9132H136.924C137.624 46.9098 138.274 46.8058 138.76 46.3024C139.255 45.7947 139.277 45.0632 139.289 44.6374V41.5112C139.277 41.0816 139.254 40.3496 138.76 39.8435C138.273 39.3424 137.623 39.2372 136.924 39.2305H129.581V50.0001ZM137.041 44.2233C137.036 44.3296 137.025 44.4497 136.961 44.535C136.85 44.6723 136.67 44.669 136.45 44.669H131.937V41.4725H136.45C136.669 41.4769 136.85 41.468 136.961 41.6098C137.025 41.6929 137.037 41.8097 137.041 41.9182V44.2233Z" fill="#7D7D7D"/>
<path id="Vector_14" d="M84.8427 41.7199C84.9473 41.5837 85.1273 41.5909 85.3438 41.5859H92.1228V39.2299H84.7591C84.0614 39.2366 83.4125 39.3418 82.9186 39.8429C82.4252 40.349 82.408 41.081 82.397 41.509V47.721C82.4086 48.1495 82.4258 48.8854 82.9186 49.3887C83.413 49.8898 84.0614 49.995 84.7591 50H89.7585C90.4572 49.9956 91.1062 49.8904 91.5979 49.3887C92.0879 48.8854 92.1106 48.1495 92.1222 47.721V43.5449H87.0409V45.6479H89.7612V47.1955C89.7579 47.3051 89.7452 47.4253 89.676 47.5072C89.568 47.6457 89.3875 47.6379 89.1704 47.6412H85.3432C85.1262 47.6379 84.9468 47.6457 84.8421 47.5061C84.7751 47.4253 84.7591 47.3051 84.7546 47.1955V42.0322C84.7591 41.9254 84.7757 41.8063 84.8427 41.7199Z" fill="#7D7D7D"/>
<path id="Vector_15" d="M125.159 47.2858C125.151 47.4109 125.171 47.6302 125.07 47.7653C124.955 47.9048 124.778 47.8943 124.557 47.8993H120.141V39.2299H117.785V50H125.144C125.843 49.9967 126.494 49.8915 126.99 49.3887C127.481 48.8815 127.501 48.1451 127.512 47.7154V39.2299H125.158V47.2858H125.159Z" fill="#7D7D7D"/>
<path id="Vector_16" d="M115.255 39.8435C114.767 39.3424 114.113 39.2372 113.417 39.2305H108.418C107.722 39.2372 107.071 39.3424 106.579 39.8435C106.088 40.3496 106.068 41.0816 106.054 41.5112V47.7216C106.068 48.1501 106.088 48.886 106.579 49.3893C107.072 49.8904 107.722 49.9956 108.418 50.0006H113.417C114.114 49.9962 114.767 49.891 115.255 49.3893C115.751 48.886 115.772 48.1501 115.782 47.7216V41.5107C115.771 41.081 115.75 40.349 115.255 39.8435ZM113.421 47.1961C113.416 47.3057 113.404 47.4259 113.34 47.5078C113.229 47.6463 113.051 47.6385 112.832 47.6418H109.007C108.788 47.6385 108.608 47.6463 108.501 47.5078C108.433 47.4259 108.418 47.3057 108.411 47.1961V42.0328C108.418 41.9254 108.433 41.8064 108.501 41.7216C108.608 41.5832 108.789 41.5937 109.007 41.5854H112.832C113.051 41.5937 113.229 41.5832 113.34 41.7216C113.404 41.8058 113.417 41.9249 113.421 42.0328V47.1961Z" fill="#7D7D7D"/>
<path id="Vector_17" d="M62.844 39.8435C62.3557 39.3424 61.7017 39.2372 61.0068 39.2305H56.0052C55.3103 39.2372 54.6597 39.3424 54.168 39.8435C53.6758 40.3496 53.6564 41.0816 53.6437 41.5112V47.7216C53.6559 48.1501 53.6758 48.886 54.168 49.3893C54.6597 49.8904 55.3103 49.9956 56.0052 50.0006H61.0068C61.7023 49.9962 62.3557 49.891 62.844 49.3893C63.3396 48.886 63.359 48.1501 63.3684 47.7216V41.5107C63.359 41.081 63.3396 40.349 62.844 39.8435ZM61.009 47.1961C61.0068 47.3057 60.9913 47.4259 60.926 47.5078C60.8175 47.6463 60.6386 47.6385 60.4182 47.6418H56.5933C56.3762 47.6385 56.1974 47.6463 56.0894 47.5078C56.0224 47.4259 56.0052 47.3057 55.9997 47.1961V42.0328C56.0052 41.9254 56.0224 41.8064 56.0894 41.7216C56.1968 41.5832 56.3762 41.5937 56.5933 41.5854H60.4182C60.6386 41.5937 60.818 41.5832 60.926 41.7216C60.9919 41.8058 61.0068 41.9249 61.009 42.0328V47.1961Z" fill="#7D7D7D"/>
<path id="Vector_18" d="M40.5109 39.8435C40.0236 39.3424 39.3697 39.2372 38.6737 39.2305H33.6743C32.9767 39.2372 32.3255 39.3424 31.8371 39.8435C31.3438 40.3496 31.3233 41.0816 31.3094 41.5112V47.7216C31.3233 48.1501 31.3443 48.886 31.8371 49.3893C32.3255 49.8904 32.9772 49.9956 33.6743 50.0006H38.6737C39.3703 49.9962 40.0236 49.891 40.5109 49.3893C41.0076 48.886 41.0258 48.1501 41.0375 47.7216V41.5107C41.0258 41.081 41.0076 40.349 40.5109 39.8435ZM38.677 47.1961C38.6737 47.3057 38.6621 47.4259 38.594 47.5078C38.4855 47.6463 38.3055 47.6385 38.0868 47.6418H34.2618C34.0436 47.6385 33.8631 47.6463 33.7574 47.5078C33.6904 47.4259 33.6743 47.3057 33.6682 47.1961V42.0328C33.6743 41.9254 33.6904 41.8064 33.7574 41.7216C33.8631 41.5832 34.0436 41.5937 34.2618 41.5854H38.0868C38.3049 41.5937 38.4855 41.5832 38.594 41.7216C38.6621 41.8058 38.6737 41.9249 38.677 42.0328V47.1961Z" fill="#7D7D7D"/>
</g>
<defs>
<clipPath id="clip0_103_67">
<rect width="156.343" height="50" fill="white" transform="translate(0.419434)"/>
</clipPath>
</defs>
</svg>
