<svg width="233" height="50" viewBox="0 0 233 50" fill="none" xmlns="http://www.w3.org/2000/svg">
<g id="JP Morgan" clip-path="url(#clip0_103_117)">
<path id="Vector" d="M23.5418 1.85715H9.84232V2.96905H14.2837V25.6095C14.2837 32.4762 12.4335 34.331 8.17738 34.331C5.58616 34.331 5.03039 32.2905 5.03039 31.3619C5.03039 28.95 4.84513 27.281 2.62205 27.281C0.401342 27.281 0.0332031 29.5071 0.0332031 30.25C0.0332031 33.4048 1.51288 35.8167 7.62161 35.8167C15.0271 35.8167 18.9128 33.4048 18.9128 25.0548V2.96667H23.3566V1.85715H23.5418V1.85715ZM25.3944 30.6191C24.6534 30.6191 23.9123 30.8095 23.5418 31.3619C22.9861 31.9191 22.8008 32.4762 22.8008 33.2191C22.8008 33.9571 22.9861 34.5167 23.5418 35.0762C24.0976 35.631 24.6534 35.8143 25.3944 35.8143C26.133 35.8143 26.6888 35.6286 27.2446 35.0762C27.8004 34.5191 27.9856 33.9571 27.9856 33.2191C27.9856 32.4762 27.8004 31.9191 27.2446 31.3619C26.6888 30.8048 26.133 30.6191 25.392 30.6191H25.3944ZM55.7528 30.6191C55.0117 30.6191 54.456 30.8095 53.9002 31.3619C53.3468 31.9191 53.1615 32.4762 53.1615 33.2191C53.1615 33.9571 53.3468 34.5167 53.9002 35.0762C54.456 35.631 55.0117 35.8143 55.7528 35.8143C56.4938 35.8143 57.2324 35.6286 57.6053 35.0762C58.1587 34.5167 58.344 33.9571 58.344 33.2191C58.344 32.4762 58.1587 31.9191 57.603 31.3619C57.0472 30.8048 56.4938 30.6191 55.7504 30.6191H55.7528ZM46.1242 1.85715H32.7952V2.96905H36.6832V28.9524C36.6832 30.9929 36.4979 31.5476 36.3127 32.1048C36.1274 32.85 35.5716 33.2214 34.6454 33.5929C34.092 33.7786 33.1657 33.9619 31.8689 33.9619V35.0762H46.3094V33.9619C45.0126 33.9619 44.0887 33.7786 43.5306 33.5929C42.6067 33.2214 42.0509 32.6643 41.868 32.1071C41.6209 31.4554 41.4945 30.7639 41.4951 30.0667V21.1548H45.0126C55.3799 21.1548 58.3416 17.0738 58.3416 11.5048C58.3416 5.75239 56.6767 1.85477 46.1242 1.85477V1.85715ZM44.2716 19.8571H41.4951V3.15477H43.9035C51.8624 3.15477 53.7126 6.49524 53.7126 11.6905C53.7126 17.0714 50.5679 19.8571 44.2716 19.8571V19.8571ZM101.105 31.9191C100.861 31.2023 100.736 30.4502 100.735 29.6929V2.96905H104.25V1.85715H95.7398C95.5545 2.22858 85.5601 27.0952 85.5601 27.0952L85.3749 27.2833C85.1896 27.2833 85.1896 27.2833 85.1896 27.0976C85.1896 27.0976 74.4542 2.04286 74.4542 1.85715H65.0061V2.97143H69.0794V31.1786C69.0794 31.7381 68.8941 32.2952 68.5236 32.85C68.1531 33.4071 67.5973 33.7786 67.0416 33.9619C66.671 34.1524 65.9324 34.1524 65.189 34.1524V35.2619H74.4471V34.1476C73.7061 34.1476 73.3355 33.9619 72.7821 33.9619C72.0411 33.7762 71.6706 33.4048 71.3001 32.8476C70.9296 32.4762 70.7443 31.9191 70.7443 31.1786L70.5591 28.7643V6.49286H71.1148C71.1148 6.49286 83.147 34.7 83.3323 35.0714H84.2586L95.735 6.68096H96.1055V29.6929C96.1055 30.6214 95.9203 31.3619 95.735 32.1048C95.5497 32.8476 94.9963 33.2191 94.2553 33.5905C93.4798 33.8483 92.6663 33.9731 91.8494 33.9595V35.0738H104.808V33.9595C103.99 33.9732 103.176 33.8485 102.399 33.5905C101.846 33.2191 101.29 32.6619 101.105 31.9191V31.9191ZM118.69 10.7643C111.655 10.7643 107.399 15.4024 107.399 23.3833C107.399 35.2595 116.655 36.0024 118.505 36.0024C122.393 36.0024 129.799 33.5905 129.799 23.2C129.799 15.0333 124.984 10.7643 118.69 10.7643V10.7643ZM118.505 34.5167C113.323 34.5167 112.396 31.9214 112.396 23.5691C112.396 17.0738 112.767 12.2476 118.505 12.2476C124.614 12.2476 124.614 17.2571 124.614 23.1952C124.614 31.5476 123.134 34.5167 118.505 34.5167ZM147.942 11.1357C143.866 11.1357 142.389 13.5476 141.275 16.1452H140.904C140.904 16.1452 140.351 12.4333 140.166 11.5048H132.019V12.8048H136.461V29.1357C136.461 30.8048 136.278 31.9214 135.91 32.6595C135.537 33.4048 134.425 33.9595 132.76 33.9595H132.019V35.4452H145.719V33.9595H144.978C143.125 33.9595 142.389 33.5905 142.014 32.8476C141.645 32.1048 141.46 30.9905 141.46 29.3214V20.4143C141.46 17.6286 143.681 14.2905 146.274 14.2905C149.051 14.2905 148.863 18.3714 152.013 16.7024C153.495 15.7738 153.124 11.1357 147.942 11.1357V11.1357ZM201.809 32.6595C200.327 32.6595 199.959 31.9214 199.773 30.4357V17.4452C199.773 15.2167 199.4 13.9191 198.108 12.6167C196.812 11.3191 194.403 10.7595 190.888 10.7595C187.556 10.7595 185.15 11.3191 183.483 12.6167C182.003 13.7333 181.264 14.8452 181.264 16.5167C181.264 17.2548 181.45 17.8143 181.818 18C182.188 18.3714 182.744 18.5571 183.297 18.5571C184.592 18.5571 185.335 17.8191 185.703 16.1452C185.893 14.8452 186.259 14.1048 186.817 13.3595C187.554 12.6214 188.67 12.2476 189.962 12.2476C191.629 12.2476 192.924 12.6167 193.479 13.5452C194.035 14.4738 194.406 15.5881 194.406 17.0691V20.9691C190.145 21.3405 179.78 22.2667 180.336 30.0619C180.521 33.031 183.114 35.8143 186.63 35.8143C190.518 35.8143 192.921 33.5905 194.586 31.9167C194.774 33.5881 196.439 35.631 199.218 35.631C202.362 35.631 204.215 34.1452 204.402 30.2476H203.661C203.661 31.7333 202.735 32.6619 201.809 32.6619V32.6595ZM194.776 30.0643V30.25L194.591 30.4357C192.37 32.4786 190.52 33.2214 189.223 33.2214C185.891 33.2214 185.335 30.4357 185.335 29.1381C185.335 24.6857 191.444 22.4571 194.776 22.4571V30.0643V30.0643ZM229.578 32.4762C229.208 31.7357 228.652 30.6191 228.652 28.9524V18.1857C228.652 16.7024 228.467 15.2167 227.911 14.2905C227.355 13.1762 226.431 12.4333 225.505 11.8762C224.394 11.3191 223.284 11.1357 221.99 11.1357C217.176 11.1357 215.323 14.1048 214.214 15.7738H213.843L212.917 11.5048H205.512V12.8048H209.217V29.1357C209.217 30.4357 209.029 31.3619 208.844 31.9214C208.656 32.6595 208.108 33.2191 207.549 33.4048C207.179 33.5905 206.438 33.7762 205.512 33.7762V35.2595H217.173V33.7762C216.062 33.5905 215.135 33.4048 214.767 32.8476C214.397 32.2905 214.029 31.1762 214.029 29.5071V23.1976C214.029 20.6024 214.029 18 214.955 16.5167C215.879 14.8452 217.729 13.9191 219.582 13.9191C221.434 13.9191 222.358 14.4762 222.916 15.5881C223.47 16.5167 223.652 19.3 223.652 21.1548V28.95C223.652 30.2476 223.842 31.1762 223.652 31.7357C223.47 32.4738 223.284 33.0333 222.726 33.4024C222.358 33.7762 221.615 33.7762 220.876 33.9595V35.4452H232.172V33.9595C230.873 33.4048 229.949 33.031 229.578 32.4762V32.4762ZM176.635 9.65C175.894 9.83572 175.524 10.5786 175.153 11.5071C174.968 12.4357 174.597 12.9905 174.042 13.1738C173.486 13.3619 172.932 13.3619 172.377 12.9905C171.082 11.8762 168.859 10.5786 164.786 10.5786C158.121 10.5786 155.345 15.2167 155.345 19.4833C155.345 24.4952 157.198 26.9095 161.451 27.8357C161.639 27.8357 161.639 28.2071 161.451 28.2071C157.936 28.95 154.604 30.0643 154.604 33.4048C154.604 35.4476 155.715 36.5595 157.383 37.3024C159.045 38.0429 161.451 38.4167 164.415 38.4167C167.004 38.4167 168.857 38.6024 169.968 38.6024C171.084 38.7466 172.157 39.1264 173.115 39.7167C173.856 40.2738 174.227 41.2024 174.227 42.3119C174.227 43.9833 173.301 45.0976 171.636 46.2119C169.973 47.1405 167.931 47.5119 165.156 47.5119C162.936 47.5119 160.9 47.3238 159.233 46.2119C157.939 45.4691 157.751 43.9857 157.939 42.8714C158.126 41.7572 157.751 40.6452 156.456 40.2738C156.063 40.1868 155.651 40.2302 155.284 40.3977C154.917 40.5651 154.614 40.8475 154.421 41.2024C154.048 41.7548 153.863 42.4976 153.863 43.4262C153.863 46.2095 156.086 47.5071 157.751 48.0643C160.342 48.8048 162.012 48.9929 164.23 48.9929C167.38 48.9929 169.783 48.4357 171.636 47.6929C173.488 46.7643 174.6 45.6524 175.338 44.3524C176.077 43.0548 176.45 41.7548 176.45 40.4548C176.45 38.7857 176.077 37.3 175.338 36.3738C172.932 33.2191 169.598 33.5881 162.195 33.2191C158.677 33.2191 157.936 32.4762 157.936 31.3619C157.936 29.6929 159.233 29.1357 164.415 28.2071C169.598 27.4643 174.41 25.4238 174.41 19.3C174.41 17.4429 174.042 15.9595 173.484 14.8476C174.597 15.031 175.524 15.031 176.448 14.8476C177.562 14.4762 178.113 13.9191 178.485 13.3619C178.856 12.6191 179.039 11.8762 178.671 11.3191C178.856 9.83572 177.93 9.27858 176.635 9.65V9.65ZM164.974 27.0952C161.829 27.0952 160.159 25.9786 160.159 19.6714C160.159 15.2191 161.641 11.8762 164.974 11.8762C168.862 11.8762 169.971 14.8452 169.971 19.4857C169.971 26.1667 167.935 27.0952 164.974 27.0952Z" fill="#7D7D7D"/>
</g>
<defs>
<clipPath id="clip0_103_117">
<rect width="232.759" height="50" fill="white"/>
</clipPath>
</defs>
</svg>
